<svg width="11" height="12" viewBox="0 0 11 12" fill="none" xmlns="http://www.w3.org/2000/svg">
<path d="M5.65373 0.768666L5.72047 0.764648C5.86019 0.764667 5.99504 0.816278 6.09945 0.909692C6.20385 1.00311 6.27056 1.13183 6.2869 1.27144L6.2909 1.33859V5.35617H10.2839C10.4236 5.35619 10.5584 5.4078 10.6628 5.50121C10.7672 5.59463 10.8339 5.72335 10.8503 5.86296L10.8543 5.93011C10.8543 6.07069 10.803 6.20637 10.7101 6.31142C10.6173 6.41647 10.4893 6.48358 10.3506 6.50003L10.2839 6.50405H6.2909V10.5216C6.29088 10.6622 6.23958 10.7979 6.14674 10.9029C6.0539 11.008 5.92597 11.0751 5.78721 11.0916L5.72047 11.0956C5.58076 11.0956 5.44591 11.0439 5.3415 10.9505C5.23709 10.8571 5.17039 10.7284 5.15404 10.5888L5.15005 10.5216V6.50405H1.15709C1.01738 6.50403 0.882527 6.45242 0.77812 6.35901C0.673712 6.26559 0.60701 6.13687 0.590663 5.99726L0.58667 5.93011C0.586688 5.78953 0.637983 5.65385 0.730824 5.5488C0.823666 5.44375 0.951597 5.37663 1.09035 5.36019L1.15709 5.35617H5.15005V1.33859C5.15007 1.19801 5.20136 1.06233 5.2942 0.957279C5.38705 0.852228 5.51498 0.785114 5.65373 0.768666Z" fill="#40BF55"/>
</svg>
