<svg width="20" height="26" viewBox="0 0 20 26" fill="none" xmlns="http://www.w3.org/2000/svg">
<g clip-path="url(#clip0_109_377)">
<path d="M12.9775 0.571593C12.935 0.524093 11.4037 0.590343 10.0712 2.03659C8.73875 3.48159 8.94375 5.13909 8.97375 5.18159C9.00375 5.22409 10.8737 5.29034 12.0675 3.60909C13.2612 1.92784 13.02 0.620343 12.9775 0.571593ZM17.12 15.2378C17.06 15.1178 14.2137 13.6953 14.4787 10.9603C14.7437 8.22409 16.5725 7.47409 16.6012 7.39284C16.63 7.31159 15.855 6.40534 15.0337 5.94659C14.4308 5.62316 13.7634 5.43785 13.08 5.40409C12.945 5.40034 12.4762 5.28534 11.5125 5.54909C10.8775 5.72284 9.44625 6.28534 9.0525 6.30784C8.6575 6.33034 7.4825 5.65534 6.21875 5.47659C5.41 5.32034 4.5525 5.64034 3.93875 5.88659C3.32625 6.13159 2.16125 6.82909 1.34625 8.68284C0.531249 10.5353 0.957499 13.4703 1.2625 14.3828C1.5675 15.2941 2.04375 16.7878 2.85375 17.8778C3.57375 19.1078 4.52875 19.9616 4.9275 20.2516C5.32625 20.5416 6.45125 20.7341 7.23125 20.3353C7.85875 19.9503 8.99125 19.7291 9.43875 19.7453C9.885 19.7616 10.765 19.9378 11.6662 20.4191C12.38 20.6653 13.055 20.5628 13.7312 20.2878C14.4075 20.0116 15.3862 18.9641 16.5287 16.8403C16.9625 15.8528 17.16 15.3191 17.12 15.2378Z" fill="#333333"/>
<path d="M12.9775 0.571593C12.935 0.524093 11.4037 0.590343 10.0712 2.03659C8.73875 3.48159 8.94375 5.13909 8.97375 5.18159C9.00375 5.22409 10.8737 5.29034 12.0675 3.60909C13.2612 1.92784 13.02 0.620343 12.9775 0.571593ZM17.12 15.2378C17.06 15.1178 14.2137 13.6953 14.4787 10.9603C14.7437 8.22409 16.5725 7.47409 16.6012 7.39284C16.63 7.31159 15.855 6.40534 15.0337 5.94659C14.4308 5.62316 13.7634 5.43785 13.08 5.40409C12.945 5.40034 12.4762 5.28534 11.5125 5.54909C10.8775 5.72284 9.44625 6.28534 9.0525 6.30784C8.6575 6.33034 7.4825 5.65534 6.21875 5.47659C5.41 5.32034 4.5525 5.64034 3.93875 5.88659C3.32625 6.13159 2.16125 6.82909 1.34625 8.68284C0.531249 10.5353 0.957499 13.4703 1.2625 14.3828C1.5675 15.2941 2.04375 16.7878 2.85375 17.8778C3.57375 19.1078 4.52875 19.9616 4.9275 20.2516C5.32625 20.5416 6.45125 20.7341 7.23125 20.3353C7.85875 19.9503 8.99125 19.7291 9.43875 19.7453C9.885 19.7616 10.765 19.9378 11.6662 20.4191C12.38 20.6653 13.055 20.5628 13.7312 20.2878C14.4075 20.0116 15.3862 18.9641 16.5287 16.8403C16.9625 15.8528 17.16 15.3191 17.12 15.2378Z" fill="#333333"/>
</g>
<defs>
<clipPath id="clip0_109_377">
<rect width="20" height="25" fill="white" transform="translate(0 0.5)"/>
</clipPath>
</defs>
</svg>
