<svg width="15" height="8" viewBox="0 0 15 8" fill="none" xmlns="http://www.w3.org/2000/svg">
<path d="M0.983735 7.50585C1.14001 7.66207 1.35193 7.74984 1.5729 7.74984C1.79387 7.74984 2.00579 7.66207 2.16207 7.50585L7.40624 2.26168L12.6504 7.50585C12.7273 7.58544 12.8192 7.64892 12.9209 7.6926C13.0226 7.73627 13.1319 7.75926 13.2426 7.76022C13.3532 7.76118 13.4629 7.7401 13.5654 7.6982C13.6678 7.6563 13.7608 7.59442 13.8391 7.51618C13.9173 7.43793 13.9792 7.34489 14.0211 7.24248C14.063 7.14006 14.0841 7.03033 14.0831 6.91968C14.0821 6.80903 14.0592 6.69968 14.0155 6.59801C13.9718 6.49634 13.9083 6.40439 13.8287 6.32751L7.9954 0.494181C7.83913 0.337955 7.62721 0.250193 7.40624 0.250193C7.18527 0.250193 6.97334 0.337955 6.81707 0.494181L0.983735 6.32751C0.827509 6.48379 0.739746 6.69571 0.739746 6.91668C0.739746 7.13765 0.827509 7.34957 0.983735 7.50585Z" fill="#666666"/>
</svg>
