<svg width="20" height="20" viewBox="0 0 20 20" fill="none" xmlns="http://www.w3.org/2000/svg">
<path d="M9.99999 1.59999C11.1031 1.59999 12.1954 1.81727 13.2145 2.23941C14.2337 2.66155 15.1597 3.28028 15.9397 4.0603C16.7197 4.84031 17.3384 5.76632 17.7606 6.78545C18.1827 7.80459 18.4 8.89689 18.4 9.99999C18.4 11.1031 18.1827 12.1954 17.7606 13.2145C17.3384 14.2337 16.7197 15.1597 15.9397 15.9397C15.1597 16.7197 14.2337 17.3384 13.2145 17.7606C12.1954 18.1827 11.1031 18.4 9.99999 18.4C7.77217 18.4 5.6356 17.515 4.0603 15.9397C2.48499 14.3644 1.59999 12.2278 1.59999 9.99999C1.59999 7.77217 2.48499 5.6356 4.0603 4.0603C5.6356 2.48499 7.77217 1.59999 9.99999 1.59999ZM19.6 9.99999C19.6 7.45391 18.5886 5.01212 16.7882 3.21177C14.9879 1.41142 12.5461 0.399994 9.99999 0.399994C7.45391 0.399994 5.01212 1.41142 3.21177 3.21177C1.41142 5.01212 0.399994 7.45391 0.399994 9.99999C0.399994 12.5461 1.41142 14.9879 3.21177 16.7882C5.01212 18.5886 7.45391 19.6 9.99999 19.6C12.5461 19.6 14.9879 18.5886 16.7882 16.7882C18.5886 14.9879 19.6 12.5461 19.6 9.99999ZM12.2248 6.22479C12.3375 6.11213 12.4007 5.95932 12.4007 5.79999C12.4007 5.64066 12.3375 5.48786 12.2248 5.37519C12.1121 5.26253 11.9593 5.19923 11.8 5.19923C11.6407 5.19923 11.4879 5.26253 11.3752 5.37519L7.17519 9.57519C7.11932 9.63093 7.07499 9.69714 7.04474 9.77003C7.01449 9.84293 6.99892 9.92107 6.99892 9.99999C6.99892 10.0789 7.01449 10.1571 7.04474 10.23C7.07499 10.3028 7.11932 10.3691 7.17519 10.4248L11.3752 14.6248C11.4879 14.7375 11.6407 14.8007 11.8 14.8007C11.9593 14.8007 12.1121 14.7375 12.2248 14.6248C12.3375 14.5121 12.4007 14.3593 12.4007 14.2C12.4007 14.0407 12.3375 13.8879 12.2248 13.7752L8.44839 9.99999L12.2248 6.22479Z" fill="#333333"/>
</svg>
