<svg width="18" height="18" viewBox="0 0 18 18" fill="none" xmlns="http://www.w3.org/2000/svg">
<path d="M0.25 9C0.25 4.1675 4.1675 0.25 9 0.25C13.8325 0.25 17.75 4.1675 17.75 9C17.75 13.8325 13.8325 17.75 9 17.75C4.1675 17.75 0.25 13.8325 0.25 9ZM13.1919 6.94187C13.3057 6.824 13.3687 6.66612 13.3673 6.50225C13.3659 6.33838 13.3001 6.18162 13.1843 6.06574C13.0684 5.94986 12.9116 5.88413 12.7478 5.8827C12.5839 5.88128 12.426 5.94428 12.3081 6.05813L8.0625 10.3038L6.00437 8.24563C5.8865 8.13178 5.72862 8.06878 5.56475 8.0702C5.40088 8.07163 5.24412 8.13736 5.12824 8.25324C5.01236 8.36912 4.94663 8.52588 4.9452 8.68975C4.94378 8.85362 5.00678 9.0115 5.12063 9.12938L7.62063 11.6294C7.73783 11.7465 7.89677 11.8124 8.0625 11.8124C8.22823 11.8124 8.38717 11.7465 8.50437 11.6294L13.1919 6.94187Z" fill="#F57C3D"/>
</svg>
