<svg width="18" height="11" viewBox="0 0 18 11" fill="none" xmlns="http://www.w3.org/2000/svg">
<path d="M9 3.50415C9.88406 3.50415 10.7319 3.85534 11.357 4.48046C11.9821 5.10558 12.3333 5.95342 12.3333 6.83748C12.3333 7.72154 11.9821 8.56938 11.357 9.1945C10.7319 9.81962 9.88406 10.1708 9 10.1708C8.11595 10.1708 7.2681 9.81962 6.64298 9.1945C6.01786 8.56938 5.66667 7.72154 5.66667 6.83748C5.66667 5.95342 6.01786 5.10558 6.64298 4.48046C7.2681 3.85534 8.11595 3.50415 9 3.50415ZM9 0.583313C12.8442 0.583313 16.1633 3.20831 17.0842 6.88665C17.1245 7.04743 17.0993 7.21766 17.0141 7.35987C16.929 7.50209 16.7908 7.60464 16.63 7.64498C16.4692 7.68532 16.299 7.66013 16.1568 7.57495C16.0146 7.48978 15.912 7.3516 15.8717 7.19081C15.4858 5.66037 14.6001 4.30253 13.355 3.33259C12.1099 2.36265 10.5766 1.83613 8.99829 1.83651C7.41996 1.83689 5.88693 2.36416 4.64228 3.3347C3.39762 4.30525 2.51259 5.66352 2.1275 7.19415C2.10764 7.27381 2.07228 7.34879 2.02344 7.41479C1.9746 7.4808 1.91324 7.53654 1.84286 7.57882C1.77249 7.62111 1.69447 7.64913 1.61326 7.66126C1.53206 7.6734 1.44925 7.66943 1.36959 7.64956C1.28992 7.6297 1.21494 7.59434 1.14894 7.5455C1.08293 7.49666 1.0272 7.4353 0.984908 7.36492C0.942619 7.29455 0.914606 7.21653 0.902468 7.13532C0.890331 7.05412 0.894307 6.97131 0.914169 6.89165C1.3661 5.08939 2.40721 3.48979 3.87217 2.34687C5.33713 1.20395 7.14195 0.583239 9 0.583313Z" fill="#333333"/>
</svg>
