<svg width="48" height="48" viewBox="0 0 48 48" fill="none" xmlns="http://www.w3.org/2000/svg">
<circle cx="24" cy="24" r="24" fill="#F2F2F2"/>
<path d="M29.25 15.6875H18.75C18.4019 15.6875 18.0681 15.8258 17.8219 16.0719C17.5758 16.3181 17.4375 16.6519 17.4375 17V21.2469C17.4382 21.5308 17.5302 21.8069 17.7 22.0344L19.65 24.6406C19.6636 24.6558 19.6739 24.6737 19.6803 24.693C19.6868 24.7124 19.6892 24.7328 19.6875 24.7531V35C19.6875 35.3481 19.8258 35.6819 20.0719 35.9281C20.3181 36.1742 20.6519 36.3125 21 36.3125H27C27.3481 36.3125 27.6819 36.1742 27.9281 35.9281C28.1742 35.6819 28.3125 35.3481 28.3125 35V24.7531C28.3108 24.7328 28.3132 24.7124 28.3197 24.693C28.3261 24.6737 28.3364 24.6558 28.35 24.6406L30.3 22.0344C30.4698 21.8069 30.5618 21.5308 30.5625 21.2469V17C30.5625 16.6519 30.4242 16.3181 30.1781 16.0719C29.9319 15.8258 29.5981 15.6875 29.25 15.6875ZM18.75 16.8125H29.25C29.2997 16.8125 29.3474 16.8323 29.3826 16.8674C29.4177 16.9026 29.4375 16.9503 29.4375 17V19.4375H18.5625V17C18.5625 16.9503 18.5823 16.9026 18.6174 16.8674C18.6526 16.8323 18.7003 16.8125 18.75 16.8125ZM29.4 21.3594L27.45 23.9656C27.2802 24.1931 27.1882 24.4692 27.1875 24.7531V35C27.1875 35.0497 27.1677 35.0974 27.1326 35.1326C27.0974 35.1677 27.0497 35.1875 27 35.1875H21C20.9503 35.1875 20.9026 35.1677 20.8674 35.1326C20.8323 35.0974 20.8125 35.0497 20.8125 35V24.7531C20.8118 24.4692 20.7198 24.1931 20.55 23.9656L18.6 21.3594C18.5864 21.3442 18.5761 21.3263 18.5697 21.307C18.5632 21.2876 18.5608 21.2672 18.5625 21.2469V20.5625H29.4375V21.2469C29.4392 21.2672 29.4368 21.2876 29.4303 21.307C29.4239 21.3263 29.4136 21.3442 29.4 21.3594ZM24.5625 25.25V28.25C24.5625 28.3992 24.5032 28.5423 24.3977 28.6477C24.2923 28.7532 24.1492 28.8125 24 28.8125C23.8508 28.8125 23.7077 28.7532 23.6023 28.6477C23.4968 28.5423 23.4375 28.3992 23.4375 28.25V25.25C23.4375 25.1008 23.4968 24.9577 23.6023 24.8523C23.7077 24.7468 23.8508 24.6875 24 24.6875C24.1492 24.6875 24.2923 24.7468 24.3977 24.8523C24.5032 24.9577 24.5625 25.1008 24.5625 25.25Z" fill="#666666"/>
</svg>
