<svg width="48" height="48" viewBox="0 0 48 48" fill="none" xmlns="http://www.w3.org/2000/svg">
<circle cx="24" cy="24" r="24" fill="#EBF5FF"/>
<path d="M29.2501 15.5H18.7501C18.3522 15.5 17.9707 15.658 17.6894 15.9393C17.4081 16.2206 17.2501 16.6022 17.2501 17V21.2469C17.2473 21.5719 17.3528 21.8885 17.5501 22.1469L19.5001 24.7531V35C19.5001 35.3978 19.6581 35.7794 19.9394 36.0607C20.2207 36.342 20.6022 36.5 21.0001 36.5H27.0001C27.3979 36.5 27.7794 36.342 28.0607 36.0607C28.342 35.7794 28.5001 35.3978 28.5001 35V24.7531L30.4501 22.1469C30.6473 21.8885 30.7528 21.5719 30.7501 21.2469V17C30.7501 16.6022 30.592 16.2206 30.3107 15.9393C30.0294 15.658 29.6479 15.5 29.2501 15.5ZM24.7501 28.25C24.7501 28.4489 24.671 28.6397 24.5304 28.7803C24.3897 28.921 24.199 29 24.0001 29C23.8011 29 23.6104 28.921 23.4697 28.7803C23.3291 28.6397 23.2501 28.4489 23.2501 28.25V25.25C23.2501 25.0511 23.3291 24.8603 23.4697 24.7197C23.6104 24.579 23.8011 24.5 24.0001 24.5C24.199 24.5 24.3897 24.579 24.5304 24.7197C24.671 24.8603 24.7501 25.0511 24.7501 25.25V28.25ZM18.7501 19.25V17H29.2501V19.25H18.7501Z" fill="#005299"/>
</svg>
