<svg width="19" height="20" viewBox="0 0 19 20" fill="none" xmlns="http://www.w3.org/2000/svg">
<path d="M8.21667 0.532953C8.62244 0.190975 9.13602 0.00341797 9.66667 0.00341797C10.1973 0.00341797 10.7109 0.190975 11.1167 0.532953L17.8667 6.22795C18.3747 6.65495 18.6667 7.28395 18.6667 7.94795V17.75C18.6667 18.2141 18.4823 18.6592 18.1541 18.9874C17.8259 19.3156 17.3808 19.5 16.9167 19.5H13.9167C13.4525 19.5 13.0074 19.3156 12.6792 18.9874C12.351 18.6592 12.1667 18.2141 12.1667 17.75V12.75C12.1667 12.551 12.0877 12.3603 11.947 12.2196C11.8063 12.079 11.6156 12 11.4167 12H7.91667C7.71776 12 7.52699 12.079 7.38634 12.2196C7.24569 12.3603 7.16667 12.551 7.16667 12.75V17.75C7.16667 18.2141 6.9823 18.6592 6.65411 18.9874C6.32592 19.3156 5.8808 19.5 5.41667 19.5H2.41667C2.18686 19.5 1.9593 19.4547 1.74698 19.3667C1.53466 19.2788 1.34174 19.1499 1.17923 18.9874C1.01673 18.8249 0.887828 18.632 0.799883 18.4196C0.711937 18.2073 0.666672 17.9798 0.666672 17.75V7.94695C0.666672 7.28395 0.958672 6.65495 1.46667 6.22695L8.21667 0.532953Z" fill="#F57C3D"/>
</svg>
