<svg width="128" height="128" viewBox="0 0 128 128" fill="none" xmlns="http://www.w3.org/2000/svg">
<path d="M60.8569 75.712L60.2667 76.2098L11.0009 124.58C14.6413 126.823 18.8349 128.008 23.1111 128H104.889C109.333 128 113.479 126.748 116.999 124.58L67.7333 76.2169L67.072 75.6622C66.1608 75.0199 65.0712 74.6792 63.9564 74.6882C62.8416 74.6971 61.7577 75.0551 60.8569 75.712ZM128 23.1111C128 16.9817 125.565 11.1033 121.231 6.76908C116.897 2.43491 111.018 0 104.889 0H23.1111C16.9817 0 11.1033 2.43491 6.76909 6.76908C2.43491 11.1033 0 16.9817 0 23.1111V104.889C0 109.348 1.26578 113.515 3.44889 117.049L52.7929 68.6009L53.7529 67.7333C56.6376 65.3279 60.2766 64.0141 64.0326 64.0219C67.7886 64.0297 71.4221 65.3586 74.2969 67.776L75.2071 68.608L124.551 117.042C126.812 113.392 128.007 109.182 128 104.889V23.1111ZM87.1111 55.1111C83.3391 55.1111 79.7216 53.6127 77.0545 50.9455C74.3873 48.2783 72.8889 44.6608 72.8889 40.8889C72.8889 37.1169 74.3873 33.4994 77.0545 30.8322C79.7216 28.1651 83.3391 26.6667 87.1111 26.6667C90.8831 26.6667 94.5005 28.1651 97.1677 30.8322C99.8349 33.4994 101.333 37.1169 101.333 40.8889C101.333 44.6608 99.8349 48.2783 97.1677 50.9455C94.5005 53.6127 90.8831 55.1111 87.1111 55.1111Z" fill="#CCCCCC"/>
</svg>
