<svg width="14" height="14" viewBox="0 0 14 14" fill="none" xmlns="http://www.w3.org/2000/svg">
    <path fill-rule="evenodd" clip-rule="evenodd" d="M6.59641 1.16663C8.02325 1.16663 9.18408 2.32746 9.18408 3.75429V4.29796C9.18408 4.53946 8.98808 4.73546 8.74658 4.73546C8.50508 4.73546 8.30908 4.53946 8.30908 4.29796V3.75429C8.30908 2.80929 7.54083 2.04163 6.59641 2.04163H3.75266C2.80941 2.04163 2.04175 2.80929 2.04175 3.75429V10.2462C2.04175 11.1906 2.80941 11.9583 3.75266 11.9583H6.60283C7.54316 11.9583 8.30908 11.193 8.30908 10.2526V9.70254C8.30908 9.46104 8.50508 9.26504 8.74658 9.26504C8.98808 9.26504 9.18408 9.46104 9.18408 9.70254V10.2526C9.18408 11.676 8.02558 12.8333 6.60283 12.8333H3.75266C2.327 12.8333 1.16675 11.673 1.16675 10.2462V3.75429C1.16675 2.32746 2.327 1.16663 3.75266 1.16663H6.59641ZM11.3098 4.98979L13.0178 6.69021C13.033 6.70533 13.0467 6.72105 13.0592 6.73769L13.0178 6.69021C13.0385 6.71059 13.0569 6.73285 13.0728 6.7566C13.0798 6.76735 13.0866 6.77848 13.0929 6.78991C13.098 6.79884 13.1026 6.80817 13.107 6.81765C13.1107 6.82602 13.1142 6.8344 13.1175 6.84291C13.1219 6.85399 13.1257 6.86539 13.1291 6.87694C13.1317 6.88604 13.134 6.89511 13.136 6.90429C13.1386 6.91544 13.1407 6.92664 13.1423 6.93794C13.1432 6.94529 13.1441 6.95298 13.1448 6.96074C13.1461 6.97404 13.1467 6.98697 13.1467 6.99996L13.1437 7.03613L13.1426 7.0593C13.1424 7.06029 13.1423 7.06128 13.1421 7.06227L13.1467 6.99996C13.1467 7.03234 13.1431 7.0644 13.1362 7.09558C13.134 7.10481 13.1317 7.11388 13.129 7.12284C13.1257 7.13453 13.1219 7.14592 13.1176 7.15714C13.1142 7.16552 13.1107 7.1739 13.1069 7.18214C13.1026 7.19175 13.098 7.20108 13.0929 7.21023C13.0866 7.22144 13.0798 7.23257 13.0726 7.24335C13.0685 7.24975 13.064 7.25606 13.0593 7.26226C13.0454 7.28053 13.0303 7.29772 13.0139 7.31364L11.3098 9.01071C11.2246 9.09588 11.1126 9.13846 11.0012 9.13846C10.8892 9.13846 10.7766 9.09588 10.6915 9.00954C10.5211 8.83804 10.5217 8.56154 10.6926 8.39121L11.6492 7.43746H5.68513C5.44363 7.43746 5.24763 7.24146 5.24763 6.99996C5.24763 6.75846 5.44363 6.56246 5.68513 6.56246H11.6504L10.6926 5.60929C10.5217 5.43896 10.5206 5.16246 10.6915 4.99096C10.8618 4.81946 11.1383 4.81946 11.3098 4.98979Z" fill="#373737"/>
</svg>
