<svg width="20" height="17" viewBox="0 0 20 17" fill="none" xmlns="http://www.w3.org/2000/svg">
<path d="M7.99999 2C7.99999 1.46957 8.21071 0.960859 8.58578 0.585786C8.96085 0.210714 9.46956 0 9.99999 0C10.5304 0 11.0391 0.210714 11.4142 0.585786C11.7893 0.960859 12 1.46957 12 2V3.24C13.7867 3.68465 15.373 4.71489 16.5058 6.16634C17.6386 7.61779 18.2527 9.40682 18.25 11.248C18.25 11.4469 18.171 11.6377 18.0303 11.7783C17.8897 11.919 17.6989 11.998 17.5 11.998H2.49999C2.30108 11.998 2.11031 11.919 1.96966 11.7783C1.82901 11.6377 1.74999 11.4469 1.74999 11.248C1.74999 7.388 4.41799 4.15 7.99999 3.249V2ZM11.25 5.5C11.0511 5.5 10.8603 5.57902 10.7197 5.71967C10.579 5.86032 10.5 6.05109 10.5 6.25C10.5 6.44891 10.579 6.63968 10.7197 6.78033C10.8603 6.92098 11.0511 7 11.25 7C12.503 7 13.393 7.618 14.136 8.68C14.1925 8.7607 14.2643 8.82948 14.3473 8.88243C14.4304 8.93537 14.523 8.97144 14.62 8.98857C14.717 9.00571 14.8164 9.00357 14.9126 8.98228C15.0088 8.96099 15.0998 8.92097 15.1805 8.8645C15.2612 8.80803 15.33 8.73622 15.3829 8.65317C15.4359 8.57012 15.4719 8.47745 15.4891 8.38046C15.5062 8.28347 15.5041 8.18405 15.4828 8.08789C15.4615 7.99173 15.4215 7.9007 15.365 7.82C14.435 6.49 13.136 5.5 11.25 5.5ZM-7.62939e-06 15C-7.62939e-06 14.4696 0.210706 13.9609 0.585779 13.5858C0.960851 13.2107 1.46956 13 1.99999 13H18C18.5304 13 19.0391 13.2107 19.4142 13.5858C19.7893 13.9609 20 14.4696 20 15C20 15.5304 19.7893 16.0391 19.4142 16.4142C19.0391 16.7893 18.5304 17 18 17H1.99999C1.46956 17 0.960851 16.7893 0.585779 16.4142C0.210706 16.0391 -7.62939e-06 15.5304 -7.62939e-06 15Z" fill="#999999"/>
</svg>
