<svg width="17" height="20" viewBox="0 0 17 20" fill="none" xmlns="http://www.w3.org/2000/svg">
<path d="M14.0873 11.9999C14.3827 11.9999 14.6753 12.0581 14.9482 12.1712C15.2211 12.2843 15.4691 12.45 15.678 12.659C15.8868 12.8679 16.0524 13.1159 16.1654 13.3889C16.2784 13.6619 16.3365 13.9545 16.3363 14.2499V15.1679C16.336 15.741 16.1567 16.2997 15.8233 16.7659C14.2783 18.9299 11.7533 20.0009 8.33332 20.0009C4.91232 20.0009 2.38932 18.9289 0.847318 16.7649C0.515444 16.2989 0.337168 15.741 0.337319 15.1689V14.2489C0.337318 13.6528 0.573991 13.081 0.995328 12.6593C1.41666 12.2376 1.98819 12.0004 2.58432 11.9999H14.0873ZM8.33332 0.00488281C8.98993 0.0048828 9.64011 0.134211 10.2467 0.385485C10.8534 0.636758 11.4046 1.00506 11.8689 1.46935C12.3331 1.93364 12.7014 2.48484 12.9527 3.09147C13.204 3.69809 13.3333 4.34827 13.3333 5.00488C13.3333 5.66149 13.204 6.31167 12.9527 6.9183C12.7014 7.52493 12.3331 8.07612 11.8689 8.54042C11.4046 9.00471 10.8534 9.37301 10.2467 9.62428C9.64011 9.87555 8.98993 10.0049 8.33332 10.0049C7.00724 10.0049 5.73547 9.4781 4.79778 8.54042C3.8601 7.60273 3.33332 6.33097 3.33332 5.00488C3.33332 3.6788 3.8601 2.40703 4.79778 1.46935C5.73547 0.531667 7.00724 0.00488281 8.33332 0.00488281Z" fill="#999999"/>
</svg>
