<svg width="18" height="18" viewBox="0 0 18 18" fill="none" xmlns="http://www.w3.org/2000/svg">
<path d="M3.5 0C2.57174 0 1.6815 0.368749 1.02513 1.02513C0.368749 1.6815 0 2.57174 0 3.5V5.364C0 5.62922 0.105357 5.88357 0.292893 6.07111C0.48043 6.25864 0.734784 6.364 1 6.364C1.26522 6.364 1.51957 6.25864 1.70711 6.07111C1.89464 5.88357 2 5.62922 2 5.364V3.5C2 3.10218 2.15804 2.72064 2.43934 2.43934C2.72064 2.15804 3.10218 2 3.5 2H5.364C5.62922 2 5.88357 1.89464 6.07111 1.70711C6.25864 1.51957 6.364 1.26522 6.364 1C6.364 0.734784 6.25864 0.48043 6.07111 0.292893C5.88357 0.105357 5.62922 0 5.364 0H3.5ZM12.636 0C12.3708 0 12.1164 0.105357 11.9289 0.292893C11.7414 0.48043 11.636 0.734784 11.636 1C11.636 1.26522 11.7414 1.51957 11.9289 1.70711C12.1164 1.89464 12.3708 2 12.636 2H14.5C14.8978 2 15.2794 2.15804 15.5607 2.43934C15.842 2.72064 16 3.10218 16 3.5V5.364C16 5.62922 16.1054 5.88357 16.2929 6.07111C16.4804 6.25864 16.7348 6.364 17 6.364C17.2652 6.364 17.5196 6.25864 17.7071 6.07111C17.8946 5.88357 18 5.62922 18 5.364V3.5C18 2.57174 17.6313 1.6815 16.9749 1.02513C16.3185 0.368749 15.4283 0 14.5 0H12.636ZM2 12.636C2 12.3708 1.89464 12.1164 1.70711 11.9289C1.51957 11.7414 1.26522 11.636 1 11.636C0.734784 11.636 0.48043 11.7414 0.292893 11.9289C0.105357 12.1164 0 12.3708 0 12.636V14.5C0 15.4283 0.368749 16.3185 1.02513 16.9749C1.6815 17.6313 2.57174 18 3.5 18H5.364C5.62922 18 5.88357 17.8946 6.07111 17.7071C6.25864 17.5196 6.364 17.2652 6.364 17C6.364 16.7348 6.25864 16.4804 6.07111 16.2929C5.88357 16.1054 5.62922 16 5.364 16H3.5C3.10218 16 2.72064 15.842 2.43934 15.5607C2.15804 15.2794 2 14.8978 2 14.5V12.636ZM18 12.636C18 12.3708 17.8946 12.1164 17.7071 11.9289C17.5196 11.7414 17.2652 11.636 17 11.636C16.7348 11.636 16.4804 11.7414 16.2929 11.9289C16.1054 12.1164 16 12.3708 16 12.636V14.5C16 14.8978 15.842 15.2794 15.5607 15.5607C15.2794 15.842 14.8978 16 14.5 16H12.636C12.3708 16 12.1164 16.1054 11.9289 16.2929C11.7414 16.4804 11.636 16.7348 11.636 17C11.636 17.2652 11.7414 17.5196 11.9289 17.7071C12.1164 17.8946 12.3708 18 12.636 18H14.5C15.4283 18 16.3185 17.6313 16.9749 16.9749C17.6313 16.3185 18 15.4283 18 14.5V12.636ZM5 8C4.73478 8 4.48043 8.10536 4.29289 8.29289C4.10536 8.48043 4 8.73478 4 9C4 9.26522 4.10536 9.51957 4.29289 9.70711C4.48043 9.89464 4.73478 10 5 10H13C13.2652 10 13.5196 9.89464 13.7071 9.70711C13.8946 9.51957 14 9.26522 14 9C14 8.73478 13.8946 8.48043 13.7071 8.29289C13.5196 8.10536 13.2652 8 13 8H5Z" fill="#333333"/>
</svg>
