<svg width="16" height="16" viewBox="0 0 16 16" fill="none" xmlns="http://www.w3.org/2000/svg">
<path d="M2.866 14.8502C2.788 15.2942 3.226 15.6412 3.612 15.4432L8.002 13.1872L12.391 15.4432C12.777 15.6412 13.215 15.2942 13.137 14.8512L12.307 10.1212L15.829 6.76517C16.159 6.45117 15.989 5.87717 15.547 5.81517L10.649 5.11917L8.465 0.792167C8.42339 0.704456 8.35775 0.63035 8.27571 0.57846C8.19366 0.526569 8.09857 0.499023 8.0015 0.499023C7.90442 0.499023 7.80933 0.526569 7.72729 0.57846C7.64524 0.63035 7.5796 0.704456 7.538 0.792167L5.354 5.12017L0.455996 5.81617C0.0149962 5.87817 -0.156004 6.45217 0.172996 6.76617L3.696 10.1222L2.866 14.8522V14.8502ZM7.771 12.0832L4.085 13.9772L4.779 10.0202C4.79525 9.92908 4.78889 9.83539 4.76047 9.74734C4.73205 9.65929 4.68244 9.57956 4.616 9.51517L1.71 6.74517L5.762 6.16917C5.8459 6.1565 5.92548 6.12368 5.99393 6.07352C6.06237 6.02336 6.11764 5.95736 6.155 5.88117L8 2.22317L9.847 5.88117C9.88435 5.95736 9.93962 6.02336 10.0081 6.07352C10.0765 6.12368 10.1561 6.1565 10.24 6.16917L14.292 6.74417L11.386 9.51417C11.3194 9.57866 11.2697 9.65855 11.2413 9.7468C11.2128 9.83504 11.2066 9.92893 11.223 10.0202L11.917 13.9772L8.231 12.0832C8.15972 12.0464 8.08069 12.0272 8.0005 12.0272C7.9203 12.0272 7.84227 12.0464 7.771 12.0832Z" fill="black"/>
</svg>
