<svg width="16" height="16" viewBox="0 0 16 16" fill="none" xmlns="http://www.w3.org/2000/svg">
<path d="M3.20835 1.95841C2.87683 1.95841 2.55889 2.09011 2.32447 2.32453C2.09005 2.55895 1.95835 2.87689 1.95835 3.20841V12.7917C1.95835 13.1233 2.09005 13.4412 2.32447 13.6756C2.55889 13.9101 2.87683 14.0417 3.20835 14.0417H12.7917C13.1232 14.0417 13.4411 13.9101 13.6756 13.6756C13.91 13.4412 14.0417 13.1233 14.0417 12.7917V9.45841C14.0417 9.2374 14.1295 9.02544 14.2858 8.86916C14.442 8.71288 14.654 8.62508 14.875 8.62508C15.096 8.62508 15.308 8.71288 15.4643 8.86916C15.6206 9.02544 15.7084 9.2374 15.7084 9.45841V12.7917C15.7084 13.5653 15.4011 14.3072 14.8541 14.8541C14.3071 15.4011 13.5652 15.7084 12.7917 15.7084H3.20835C2.43481 15.7084 1.69294 15.4011 1.14596 14.8541C0.598978 14.3072 0.291687 13.5653 0.291687 12.7917V3.20841C0.291687 2.43487 0.598978 1.693 1.14596 1.14602C1.69294 0.599039 2.43481 0.291748 3.20835 0.291748H6.54169C6.7627 0.291748 6.97466 0.379545 7.13094 0.535826C7.28722 0.692106 7.37502 0.904068 7.37502 1.12508C7.37502 1.3461 7.28722 1.55806 7.13094 1.71434C6.97466 1.87062 6.7627 1.95841 6.54169 1.95841H3.20835ZM8.62502 1.12508C8.62502 0.904068 8.71282 0.692106 8.8691 0.535826C9.02538 0.379545 9.23734 0.291748 9.45835 0.291748H14.875C15.096 0.291748 15.308 0.379545 15.4643 0.535826C15.6206 0.692106 15.7084 0.904068 15.7084 1.12508V6.54175C15.7084 6.76276 15.6206 6.97472 15.4643 7.131C15.308 7.28728 15.096 7.37508 14.875 7.37508C14.654 7.37508 14.442 7.28728 14.2858 7.131C14.1295 6.97472 14.0417 6.76276 14.0417 6.54175V3.13675L10.0475 7.13091C9.97065 7.21051 9.87869 7.27399 9.77702 7.31767C9.67535 7.36134 9.566 7.38433 9.45535 7.38529C9.3447 7.38625 9.23497 7.36517 9.13256 7.32327C9.03014 7.28136 8.9371 7.21949 8.85886 7.14124C8.78061 7.063 8.71874 6.96996 8.67684 6.86754C8.63493 6.76513 8.61385 6.6554 8.61481 6.54475C8.61577 6.4341 8.63876 6.32475 8.68244 6.22308C8.72611 6.12141 8.78959 6.02945 8.86919 5.95258L12.8634 1.95841H9.45835C9.23734 1.95841 9.02538 1.87062 8.8691 1.71434C8.71282 1.55806 8.62502 1.3461 8.62502 1.12508Z" fill="#F57C3D"/>
</svg>
