<svg width="64" height="53" viewBox="0 0 64 53" fill="none" xmlns="http://www.w3.org/2000/svg">
<path d="M33.416 1.58397C33.2302 1.39772 33.0095 1.24995 32.7665 1.14912C32.5235 1.0483 32.2631 0.996399 32 0.996399C31.7369 0.996399 31.4764 1.0483 31.2335 1.14912C30.9905 1.24995 30.7698 1.39772 30.584 1.58397L18.584 13.584C18.398 13.7699 18.2505 13.9907 18.1499 14.2336C18.0493 14.4766 17.9975 14.737 17.9975 15C17.9975 15.263 18.0493 15.5234 18.1499 15.7663C18.2505 16.0093 18.398 16.23 18.584 16.416C18.7699 16.6019 18.9907 16.7494 19.2337 16.8501C19.4766 16.9507 19.737 17.0025 20 17.0025C20.263 17.0025 20.5234 16.9507 20.7663 16.8501C21.0093 16.7494 21.23 16.6019 21.416 16.416L30 7.82797V39C30 39.5304 30.2107 40.0391 30.5858 40.4142C30.9608 40.7893 31.4696 41 32 41C32.5304 41 33.0391 40.7893 33.4142 40.4142C33.7893 40.0391 34 39.5304 34 39V7.82797L42.584 16.416C42.9595 16.7915 43.4689 17.0025 44 17.0025C44.5311 17.0025 45.0404 16.7915 45.416 16.416C45.7915 16.0404 46.0025 15.5311 46.0025 15C46.0025 14.4689 45.7915 13.9595 45.416 13.584L33.416 1.58397ZM4 31C4 29.4087 4.63214 27.8826 5.75736 26.7573C6.88258 25.6321 8.4087 25 10 25H22C22.5304 25 23.0391 24.7893 23.4142 24.4142C23.7893 24.0391 24 23.5304 24 23C24 22.4695 23.7893 21.9608 23.4142 21.5858C23.0391 21.2107 22.5304 21 22 21H10C7.34783 21 4.8043 22.0535 2.92893 23.9289C1.05357 25.8043 0 28.3478 0 31V43C0 45.6521 1.05357 48.1957 2.92893 50.0711C4.8043 51.9464 7.34783 53 10 53H54C56.6522 53 59.1957 51.9464 61.0711 50.0711C62.9464 48.1957 64 45.6521 64 43V31C64 28.3478 62.9464 25.8043 61.0711 23.9289C59.1957 22.0535 56.6522 21 54 21H42C41.4696 21 40.9608 21.2107 40.5858 21.5858C40.2107 21.9608 40 22.4695 40 23C40 23.5304 40.2107 24.0391 40.5858 24.4142C40.9608 24.7893 41.4696 25 42 25H54C55.5913 25 57.1174 25.6321 58.2426 26.7573C59.3678 27.8826 60 29.4087 60 31V43C60 44.5913 59.3678 46.1174 58.2426 47.2426C57.1174 48.3678 55.5913 49 54 49H10C8.4087 49 6.88258 48.3678 5.75736 47.2426C4.63214 46.1174 4 44.5913 4 43V31Z" fill="#787878"/>
</svg>
